<svg version="1.1" id="Layer_1" xmlns="http://www.w3.org/2000/svg" xmlns:xlink="http://www.w3.org/1999/xlink" x="0px" y="0px"
	 width="100%" viewBox="0 0 512 512" enable-background="new 0 0 512 512" xml:space="preserve">
<path opacity="0" stroke="none" 
	d="
M302.000000,513.000000 
	C201.357773,513.000000 101.215538,513.000000 1.036655,513.000000 
	C1.036655,342.399414 1.036655,171.798813 1.036655,1.099110 
	C171.558914,1.099110 342.117889,1.099110 512.838440,1.099110 
	C512.838440,171.666550 512.838440,342.333252 512.838440,513.000000 
	C442.798798,513.000000 372.649384,513.000000 302.000000,513.000000 
M294.500000,17.000284 
	C212.390106,17.000284 130.280212,17.000284 48.237537,17.000284 
	C48.525654,22.675459 48.620186,27.776163 49.073608,32.844765 
	C50.301102,46.566257 51.742504,60.268581 52.978466,73.989365 
	C53.775356,82.835876 54.231594,91.713646 55.066673,100.556038 
	C56.623920,117.045296 58.382595,133.515427 59.986618,150.000412 
	C61.051746,160.947052 62.012173,171.904007 62.986534,182.859283 
	C64.339615,198.072678 65.663094,213.288696 66.996902,228.503799 
	C68.330872,243.720764 69.655746,258.938507 70.996056,274.154907 
	C72.321800,289.206024 73.661850,304.255920 74.995628,319.306335 
	C76.329391,334.356537 77.657913,349.407166 78.998383,364.456787 
	C80.323891,379.338531 81.724892,394.213959 82.974663,409.102020 
	C84.074226,422.200745 85.010536,435.313171 86.012367,448.334167 
	C100.845047,452.587860 115.420990,456.849518 130.043381,460.945404 
	C167.643326,471.477570 205.247574,481.995300 242.890152,492.373505 
	C250.258179,494.404907 257.117371,496.910553 265.603882,494.307007 
	C295.016479,485.283447 324.804993,477.485168 354.451385,469.223816 
	C379.229706,462.319031 404.009247,455.418732 428.779846,448.518799 
	C429.208649,441.309052 429.464172,434.213257 430.086395,427.149780 
	C431.280823,413.590881 432.754791,400.056702 433.974182,386.499817 
	C434.784882,377.486542 435.265045,368.443817 436.053772,359.428284 
	C437.298157,345.205139 438.715698,330.997253 439.985382,316.776215 
	C440.745911,308.257324 441.266937,299.716492 442.069672,291.201965 
	C443.300781,278.143829 444.773956,265.108307 445.967957,252.047043 
	C446.806702,242.872192 447.262360,233.662857 448.048737,224.482590 
	C449.295563,209.926590 450.697266,195.383911 451.991272,180.831848 
	C452.719238,172.645218 453.286041,164.443817 454.061676,156.261978 
	C455.315125,143.039612 456.775635,129.836456 457.967102,116.608833 
	C458.808594,107.266571 459.203064,97.883789 460.060211,88.543243 
	C461.243225,75.651657 462.783051,62.792809 463.965118,49.901146 
	C464.960785,39.042244 465.663971,28.156523 466.518280,17.000284 
	C409.461029,17.000284 352.480530,17.000284 294.500000,17.000284 
z"/>
<path fill="#4568dc" opacity="1.000000" stroke="none" 
	d="
M295.000000,17.000284 
	C352.480530,17.000284 409.461029,17.000284 466.518280,17.000284 
	C465.663971,28.156523 464.960785,39.042244 463.965118,49.901146 
	C462.783051,62.792809 461.243225,75.651657 460.060211,88.543243 
	C459.203064,97.883789 458.808594,107.266571 457.967102,116.608833 
	C456.775635,129.836456 455.315125,143.039612 454.061676,156.261978 
	C453.286041,164.443817 452.719238,172.645218 451.991272,180.831848 
	C450.697266,195.383911 449.295563,209.926590 448.048737,224.482590 
	C447.262360,233.662857 446.806702,242.872192 445.967957,252.047043 
	C444.773956,265.108307 443.300781,278.143829 442.069672,291.201965 
	C441.266937,299.716492 440.745911,308.257324 439.985382,316.776215 
	C438.715698,330.997253 437.298157,345.205139 436.053772,359.428284 
	C435.265045,368.443817 434.784882,377.486542 433.974182,386.499817 
	C432.754791,400.056702 431.280823,413.590881 430.086395,427.149780 
	C429.464172,434.213257 429.208649,441.309052 428.779846,448.518799 
	C404.009247,455.418732 379.229706,462.319031 354.451385,469.223816 
	C324.804993,477.485168 295.016479,485.283447 265.603882,494.307007 
	C257.117371,496.910553 250.258179,494.404907 242.890152,492.373505 
	C205.247574,481.995300 167.643326,471.477570 130.043381,460.945404 
	C115.420990,456.849518 100.845047,452.587860 86.012367,448.334167 
	C85.010536,435.313171 84.074226,422.200745 82.974663,409.102020 
	C81.724892,394.213959 80.323891,379.338531 78.998383,364.456787 
	C77.657913,349.407166 76.329391,334.356537 74.995628,319.306335 
	C73.661850,304.255920 72.321800,289.206024 70.996056,274.154907 
	C69.655746,258.938507 68.330872,243.720764 66.996902,228.503799 
	C65.663094,213.288696 64.339615,198.072678 62.986534,182.859283 
	C62.012173,171.904007 61.051746,160.947052 59.986618,150.000412 
	C58.382595,133.515427 56.623920,117.045296 55.066673,100.556038 
	C54.231594,91.713646 53.775356,82.835876 52.978466,73.989365 
	C51.742504,60.268581 50.301102,46.566257 49.073608,32.844765 
	C48.620186,27.776163 48.525654,22.675459 48.237537,17.000284 
	C130.280212,17.000284 212.390106,17.000284 295.000000,17.000284 
M381.796753,193.243057 
	C384.333252,164.124313 386.869751,135.005585 389.417114,105.762039 
	C300.874542,105.762039 213.177383,105.762039 125.177155,105.762039 
	C126.334854,122.431267 127.460663,138.641403 128.608032,155.161926 
	C196.801422,155.161926 264.385498,155.161926 332.135742,155.161926 
	C332.135742,156.986145 332.225220,158.459396 332.121857,159.919006 
	C331.109894,174.210556 329.815216,188.488571 329.172333,202.796127 
	C328.959595,207.531174 327.328156,208.477814 322.984344,208.523376 
	C261.828125,209.164825 200.673691,209.973633 139.518951,210.752365 
	C137.750900,210.774872 135.984329,210.912857 133.829514,211.015472 
	C135.614395,227.899414 137.340073,244.223099 139.074554,260.630188 
	C200.942078,260.630188 262.326660,260.630188 323.708069,260.630188 
	C323.829620,261.489044 324.004333,261.988983 323.952728,262.464417 
	C321.491852,285.148193 319.078400,307.837830 316.383728,330.493988 
	C316.202332,332.019348 314.111267,334.103882 312.519501,334.554413 
	C295.230591,339.447998 277.877747,344.119110 260.499695,348.688934 
	C258.508362,349.212555 256.139709,349.200653 254.146332,348.675995 
	C236.769638,344.102356 219.447571,339.321686 202.084351,334.696014 
	C199.509384,334.010010 198.250854,332.905640 198.040924,330.011414 
	C197.173370,318.050873 195.892456,306.119812 195.069458,294.156860 
	C194.833328,290.724609 193.713287,289.644836 190.296494,289.681091 
	C175.465378,289.838501 160.631638,289.738556 145.798920,289.769470 
	C144.537369,289.772095 143.276367,290.050446 141.966690,290.206482 
	C141.966690,291.598511 141.890442,292.598022 141.977814,293.583038 
	C144.288773,319.633087 146.558105,345.687408 149.102264,371.714813 
	C149.239517,373.118958 151.502518,375.015503 153.118011,375.471771 
	C186.739807,384.967224 220.405304,394.308380 254.088333,403.585083 
	C255.931931,404.092804 258.138184,404.266205 259.948120,403.768280 
	C294.116669,394.367950 328.260437,384.876495 362.358673,375.225128 
	C363.780670,374.822601 365.604553,372.767944 365.739227,371.341187 
	C368.620056,340.827850 371.270660,310.292877 373.997803,279.764954 
	C376.547089,251.228027 379.133301,222.694397 381.796753,193.243057 
z"/>
<path opacity="0" stroke="none" 
	d="
M381.750000,193.701187 
	C379.133301,222.694397 376.547089,251.228027 373.997803,279.764954 
	C371.270660,310.292877 368.620056,340.827850 365.739227,371.341187 
	C365.604553,372.767944 363.780670,374.822601 362.358673,375.225128 
	C328.260437,384.876495 294.116669,394.367950 259.948120,403.768280 
	C258.138184,404.266205 255.931931,404.092804 254.088333,403.585083 
	C220.405304,394.308380 186.739807,384.967224 153.118011,375.471771 
	C151.502518,375.015503 149.239517,373.118958 149.102264,371.714813 
	C146.558105,345.687408 144.288773,319.633087 141.977814,293.583038 
	C141.890442,292.598022 141.966690,291.598511 141.966690,290.206482 
	C143.276367,290.050446 144.537369,289.772095 145.798920,289.769470 
	C160.631638,289.738556 175.465378,289.838501 190.296494,289.681091 
	C193.713287,289.644836 194.833328,290.724609 195.069458,294.156860 
	C195.892456,306.119812 197.173370,318.050873 198.040924,330.011414 
	C198.250854,332.905640 199.509384,334.010010 202.084351,334.696014 
	C219.447571,339.321686 236.769638,344.102356 254.146332,348.675995 
	C256.139709,349.200653 258.508362,349.212555 260.499695,348.688934 
	C277.877747,344.119110 295.230591,339.447998 312.519501,334.554413 
	C314.111267,334.103882 316.202332,332.019348 316.383728,330.493988 
	C319.078400,307.837830 321.491852,285.148193 323.952728,262.464417 
	C324.004333,261.988983 323.829620,261.489044 323.708069,260.630188 
	C262.326660,260.630188 200.942078,260.630188 139.074554,260.630188 
	C137.340073,244.223099 135.614395,227.899414 133.829514,211.015472 
	C135.984329,210.912857 137.750900,210.774872 139.518951,210.752365 
	C200.673691,209.973633 261.828125,209.164825 322.984344,208.523376 
	C327.328156,208.477814 328.959595,207.531174 329.172333,202.796127 
	C329.815216,188.488571 331.109894,174.210556 332.121857,159.919006 
	C332.225220,158.459396 332.135742,156.986145 332.135742,155.161926 
	C264.385498,155.161926 196.801422,155.161926 128.608032,155.161926 
	C127.460663,138.641403 126.334854,122.431267 125.177155,105.762039 
	C213.177383,105.762039 300.874542,105.762039 389.417114,105.762039 
	C386.869751,135.005585 384.333252,164.124313 381.750000,193.701187 
z"/>
</svg>