<svg version="1.1" id="Layer_1" xmlns="http://www.w3.org/2000/svg" xmlns:xlink="http://www.w3.org/1999/xlink" x="0px" y="0px"
	 width="100%" viewBox="0 0 1150 1000" enable-background="new 0 0 1150 1000" xml:space="preserve">
<path fill="#4568dc" opacity="1.000000" stroke="none" 
	d="
M383.000000,1001.000000 
	C363.312439,1001.000000 343.624878,1001.000000 323.801392,1000.692139 
	C322.854279,999.924805 322.095856,999.266541 321.224121,999.035339 
	C305.002228,994.734314 290.344818,987.348511 277.788788,976.210999 
	C260.069611,960.493774 248.591110,940.693298 240.986237,918.459106 
	C233.724701,897.228760 230.260101,875.208252 229.243103,852.982117 
	C228.395065,834.449219 229.007156,815.776306 230.208557,797.245605 
	C231.197235,781.996216 233.690018,766.815369 236.090485,751.695312 
	C238.221786,738.270569 241.057953,724.954102 243.748672,711.623291 
	C245.224167,704.313049 247.042191,697.072021 248.698792,689.830261 
	C239.973999,687.193481 231.660858,685.131287 223.674896,682.182922 
	C199.977631,673.434082 176.024261,665.221191 152.885498,655.156250 
	C122.165207,641.793518 93.058769,625.133972 67.770355,602.948059 
	C49.281414,586.727417 33.041351,568.414368 22.900305,545.303528 
	C14.750350,526.730347 12.181817,507.375183 14.273418,487.687012 
	C16.255566,469.029144 23.542261,451.838837 34.237305,436.258331 
	C44.398991,421.454773 56.621994,408.613312 70.341988,397.027771 
	C87.294609,382.712433 105.705063,370.570618 125.332657,360.473450 
	C142.829590,351.472382 160.762527,343.192261 178.973450,335.744141 
	C194.748962,329.292084 211.172821,324.419556 227.333527,318.917633 
	C234.442139,316.497498 241.608810,314.247925 248.483841,312.007324 
	C247.920563,308.677521 247.497375,305.668213 246.894806,302.695251 
	C242.622025,281.614044 237.710358,260.639679 234.210815,239.431824 
	C231.551605,223.316528 229.603210,206.929230 229.270111,190.623489 
	C228.841339,169.634705 229.454681,148.528595 231.288223,127.619400 
	C232.809372,110.272713 237.113129,93.271904 243.480896,76.854301 
	C249.278107,61.907757 256.927185,48.112587 267.476715,36.126076 
	C282.044006,19.574480 300.031250,8.281648 321.580414,2.919487 
	C322.175934,2.771295 322.532166,1.661428 323.000000,1.000000 
	C342.687561,1.000000 362.375122,1.000000 382.197815,1.320303 
	C382.988892,2.084333 383.595978,2.805687 384.308044,2.931170 
	C401.777405,6.009635 418.216003,12.255302 434.175140,19.697115 
	C462.774170,33.032932 489.533234,49.486156 513.903320,69.543709 
	C532.997131,85.258705 551.534485,101.651077 570.249939,117.822525 
	C572.212341,119.518211 573.706482,121.755753 575.314148,123.621483 
	C581.973938,117.527397 587.639099,111.965340 593.697632,106.871124 
	C611.211243,92.145172 628.687866,77.363686 646.548218,63.065147 
	C664.042114,49.059975 683.136658,37.396126 702.988831,27.041777 
	C723.661011,16.259731 744.948914,7.024340 768.108948,2.865858 
	C768.504883,2.794756 768.707336,1.645932 769.000000,1.000003 
	C788.687561,1.000000 808.375122,1.000000 828.209290,1.313699 
	C828.838501,2.061775 829.257629,2.758609 829.812805,2.892842 
	C856.888916,9.439527 877.587036,24.936535 893.302429,47.655434 
	C902.784851,61.363834 908.946960,76.534187 913.687134,92.349800 
	C919.367798,111.303062 922.264709,130.851898 922.747681,150.496811 
	C923.230713,170.141312 922.108215,189.864380 920.848083,209.499023 
	C919.993530,222.814819 918.172668,236.120758 915.917175,249.282547 
	C912.344055,270.132660 908.045288,290.858429 903.991638,311.959320 
	C904.511719,312.149933 905.693542,312.621246 906.899536,313.019409 
	C922.029297,318.014404 937.187622,322.924622 952.289673,328.001984 
	C980.385864,337.448090 1007.309204,349.584503 1033.150513,364.060638 
	C1057.348389,377.616180 1080.006836,393.223511 1099.214478,413.567505 
	C1111.388916,426.462097 1121.755615,440.410278 1128.976929,456.661499 
	C1137.501587,475.846405 1139.843994,495.757538 1137.080933,516.514038 
	C1134.681152,534.542358 1127.767090,550.685120 1117.809814,565.649292 
	C1107.797729,580.695801 1095.114868,593.317688 1081.478760,605.062134 
	C1065.412842,618.899292 1047.723511,630.418762 1029.059692,640.242798 
	C1012.484924,648.967102 995.506531,657.096252 978.154419,664.125610 
	C959.668457,671.614380 940.542358,677.526001 921.679138,684.078552 
	C915.538757,686.211609 909.346436,688.195312 904.217957,689.901245 
	C908.574524,713.670288 913.240234,736.678955 916.890564,759.847595 
	C919.608215,777.096313 921.819336,794.508606 922.757324,811.928772 
	C923.584290,827.286865 922.869202,842.792664 921.836365,858.166138 
	C920.997437,870.652466 919.208008,883.138672 916.902527,895.449341 
	C912.261719,920.230408 902.957581,942.998047 886.817200,962.813599 
	C872.000122,981.004639 853.346497,992.860168 830.877380,999.062988 
	C830.130249,999.269287 829.620422,1000.334900 829.000000,1001.000000 
	C809.312439,1001.000000 789.624878,1001.000000 769.803101,1000.679504 
	C769.179138,999.928772 768.741028,999.207947 768.192078,999.110291 
	C748.818054,995.665649 730.749023,988.468872 713.120728,980.011353 
	C690.735535,969.271484 669.851807,956.115479 649.807495,941.471375 
	C630.377686,927.276306 611.718323,912.213074 594.199585,895.722656 
	C588.205811,890.080750 582.075867,884.583374 576.336548,879.321106 
	C561.836914,892.092590 547.759155,905.216064 532.894958,917.378540 
	C518.470581,929.181091 503.460480,940.306274 488.304993,951.167175 
	C469.606171,964.567383 449.533661,975.712341 428.425323,984.876770 
	C414.229065,991.040283 399.738342,996.427368 384.383423,999.094238 
	C383.828674,999.190613 383.457031,1000.340942 383.000000,1001.000000 
M728.501587,596.997498 
	C734.420776,586.429932 740.489807,575.943054 746.225891,565.276978 
	C756.111023,546.895691 766.021729,528.519287 775.355896,509.857849 
	C777.202759,506.165466 780.825012,502.324799 777.582947,496.789001 
	C772.370361,487.888580 768.370972,478.287811 763.526184,469.159576 
	C754.808655,452.734741 746.369263,436.128662 736.869324,420.160065 
	C719.521118,390.998932 701.379761,362.310730 683.813477,333.277466 
	C679.820435,326.677734 675.489624,322.025726 666.969971,323.901337 
	C665.363403,324.255035 663.487122,323.126740 661.717163,323.036041 
	C647.537598,322.309326 633.354126,321.123505 619.170898,321.111420 
	C588.082458,321.084991 556.990845,321.514648 525.906128,322.071716 
	C512.719116,322.308075 499.494598,324.339233 486.384064,323.666199 
	C476.698608,323.169037 471.323334,326.505737 467.517090,334.775848 
	C465.848206,338.402008 462.879089,341.408569 460.709503,344.829102 
	C451.440277,359.443024 441.974060,373.942230 433.104736,388.796722 
	C423.746857,404.469452 414.765961,420.378540 406.020905,436.402954 
	C395.787384,455.154846 385.850677,474.073364 376.123169,493.092468 
	C374.373932,496.512482 371.722015,500.019836 374.240570,504.831421 
	C382.116364,519.877808 388.971527,535.474976 397.200317,550.316345 
	C410.606995,574.496582 424.443268,598.455994 438.751862,622.113281 
	C449.793030,640.368286 461.821381,658.026917 473.477295,675.907349 
	C474.068573,676.814331 475.241669,677.820435 476.225800,677.913452 
	C481.634369,678.424805 487.066406,678.704407 492.494171,678.992188 
	C505.507843,679.682129 518.523499,680.884888 531.538574,680.888245 
	C562.793518,680.896240 594.051392,680.494690 625.302307,679.934937 
	C641.322388,679.648132 657.326233,678.459900 673.346313,678.166077 
	C676.763916,678.103394 678.452026,676.702271 679.908264,674.386475 
	C695.989380,648.813049 712.012390,623.203125 728.501587,596.997498 
M452.477203,268.013763 
	C479.992188,230.252472 508.901031,193.626266 541.210388,158.991959 
	C531.944824,150.630814 522.927246,141.858582 513.242004,133.898743 
	C497.755707,121.171387 482.139679,108.558426 466.014771,96.661156 
	C437.838898,75.872505 407.515228,59.216438 372.934265,51.487171 
	C359.522461,48.489475 346.130981,47.821922 332.739319,51.682098 
	C314.035492,57.073521 301.942047,69.944916 293.748322,86.807198 
	C284.029358,106.808372 280.211578,128.436905 279.228760,150.351318 
	C278.435120,168.047882 279.520935,185.839981 280.079163,203.580063 
	C280.284485,210.105240 281.074341,216.649948 282.111877,223.103058 
	C284.222717,236.232025 286.491974,249.342361 289.054718,262.389893 
	C291.530304,274.993622 294.457001,287.508759 297.136993,299.839447 
	C306.232544,297.960876 314.601685,296.137177 323.010040,294.517456 
	C336.383484,291.941284 349.744843,289.266083 363.183838,287.078369 
	C373.801270,285.349976 384.526855,284.284332 395.206055,282.937531 
	C408.313293,281.284485 421.404877,279.484863 434.537323,278.063293 
	C441.785034,277.278748 449.093353,277.121613 452.477203,268.013763 
M473.007019,761.512634 
	C465.003998,750.675049 457.019958,739.823242 448.975494,729.016541 
	C447.894623,727.564575 446.663605,725.406860 445.237579,725.170227 
	C438.956757,724.127930 432.577515,723.683105 426.236542,722.997803 
	C413.887238,721.662964 401.493958,720.632996 389.203552,718.882263 
	C375.547089,716.936951 361.968323,714.422119 348.386261,711.984924 
	C331.376251,708.932495 314.397369,705.706726 296.950134,702.471436 
	C294.673126,713.229614 292.512421,724.326477 289.957031,735.331665 
	C284.155029,760.319031 280.501923,785.690430 279.289948,811.215088 
	C278.290314,832.267395 278.026276,853.450745 281.808838,874.505981 
	C284.834412,891.347473 288.998016,907.596741 297.814789,922.378235 
	C305.305939,934.937317 315.477875,944.315430 329.558502,949.223145 
	C345.801544,954.884521 362.007843,953.450073 378.184052,949.352173 
	C405.109558,942.531006 429.620239,930.198364 452.464905,914.780884 
	C468.733948,903.801086 484.421600,891.875427 499.718079,879.563538 
	C514.069092,868.012512 527.565674,855.399902 541.401367,843.286743 
	C533.033142,834.079590 525.076111,825.743286 517.601807,816.994629 
	C508.373383,806.192810 499.473389,795.106750 490.571564,784.030884 
	C484.760010,776.800049 479.197449,769.369019 473.007019,761.512634 
M663.978699,780.534668 
	C657.481262,788.696106 651.197815,797.039856 644.437317,804.977234 
	C633.588623,817.714783 622.424255,830.183472 610.779724,843.465515 
	C624.581543,855.558167 638.114685,868.401611 652.690857,879.925659 
	C669.218384,892.992493 686.393311,905.298340 703.806824,917.172302 
	C726.788818,932.843201 751.716064,944.497803 779.052734,950.564331 
	C792.497986,953.548157 805.898499,954.121216 819.276611,950.288513 
	C837.803711,944.980713 849.901855,932.325623 857.996155,915.543640 
	C868.402588,893.967712 872.226013,870.773254 872.890808,847.096680 
	C873.474731,826.299561 873.365112,805.480835 870.061157,784.808228 
	C868.363037,774.183533 867.824524,763.357239 865.813477,752.802734 
	C862.578918,735.826782 858.558533,719.000488 854.868774,702.104492 
	C848.518250,703.455627 842.568176,704.886414 836.555420,705.969543 
	C819.313843,709.075562 802.061646,712.128357 784.785095,715.032104 
	C772.128174,717.159485 759.461426,719.294922 746.734497,720.920776 
	C733.591858,722.599731 720.368042,723.639343 707.191284,725.065063 
	C706.326538,725.158569 705.346130,726.000244 704.781372,726.762085 
	C700.437927,732.621582 696.294800,738.631714 691.879272,744.435181 
	C682.816528,756.346497 673.622681,768.158142 663.978699,780.534668 
M854.053528,79.419853 
	C841.870911,59.062531 823.696106,49.163204 800.193237,49.060520 
	C787.254456,49.003983 774.733887,51.840672 762.473206,55.877964 
	C739.906372,63.308979 718.785645,73.843796 699.375549,87.370697 
	C681.254395,99.999405 663.677856,113.466187 646.435059,127.279900 
	C634.012329,137.232117 622.530945,148.359406 610.943115,158.683365 
	C619.857056,168.913498 628.268311,178.368668 636.455811,188.013702 
	C646.599426,199.962952 656.904785,211.800079 666.510742,224.174316 
	C679.452454,240.845535 691.781555,257.991974 704.426880,274.894623 
	C705.093384,275.785645 706.191711,276.785187 707.197998,276.919800 
	C713.355103,277.743683 719.542786,278.340271 725.721924,278.997803 
	C738.404846,280.347473 751.133850,281.364166 763.760376,283.118744 
	C777.750305,285.062775 791.679199,287.502075 805.575989,290.046265 
	C821.943604,293.042786 838.248291,296.383301 855.644165,299.782532 
	C859.749023,277.377319 864.208557,254.825073 867.914368,232.149673 
	C870.202881,218.146759 872.341003,203.986191 872.764709,189.843033 
	C873.391785,168.909897 873.855164,147.916840 870.139648,127.047554 
	C867.198608,110.528465 862.946594,94.622948 854.053528,79.419853 
M987.614258,396.956757 
	C956.195435,381.292633 923.220032,369.792297 889.502563,360.263184 
	C889.082886,361.645111 888.714966,363.029938 888.244629,364.379028 
	C881.508484,383.700165 875.311523,403.232300 867.875854,422.280792 
	C857.973389,447.648560 847.171021,472.667328 836.547241,497.747894 
	C835.482971,500.260437 835.460327,501.900024 836.620422,504.342224 
	C841.257751,514.104919 845.785583,523.934692 849.906006,533.924377 
	C856.415405,549.706177 862.867920,565.524292 868.788940,581.532593 
	C876.142090,601.412720 882.929382,621.502136 890.042297,641.732422 
	C900.892517,638.327942 912.164551,635.001404 923.296326,631.257690 
	C953.016602,621.262390 981.950317,609.386841 1009.296265,593.933777 
	C1032.664673,580.728455 1054.459473,565.474060 1071.320679,544.148315 
	C1082.558716,529.934570 1090.158203,514.514404 1088.096069,495.564301 
	C1087.093018,486.346680 1084.154907,478.018829 1079.613892,470.051727 
	C1073.246582,458.880554 1065.186035,449.136688 1055.348755,440.917297 
	C1047.601929,434.444550 1040.084229,427.516968 1031.611816,422.133759 
	C1017.559753,413.205261 1002.822327,405.355316 987.614258,396.956757 
M174.459091,610.059753 
	C202.978745,622.948242 232.484665,633.089294 262.782776,641.751038 
	C262.863678,640.733765 262.737640,639.695435 263.047272,638.809265 
	C270.483765,617.524414 277.374207,596.023560 285.596802,575.045166 
	C295.122253,550.742859 305.840149,526.908325 315.968628,502.840546 
	C316.382538,501.856995 316.438477,500.407867 316.031769,499.440216 
	C307.406494,478.918793 298.197113,458.627747 290.118469,437.895538 
	C280.155182,412.326630 271.118164,386.396759 261.519073,360.180969 
	C248.302124,364.588501 234.416031,369.261810 220.501877,373.850128 
	C193.109756,382.882965 166.837433,394.451355 141.762314,408.697296 
	C118.860954,421.708221 97.444168,436.579193 80.900139,457.557068 
	C69.438988,472.089844 61.134304,487.849121 64.211288,506.976929 
	C65.544891,515.267151 68.212509,523.680176 72.005264,531.159607 
	C77.916985,542.817871 86.462914,552.782288 96.660538,561.124207 
	C104.481178,567.521606 111.898483,574.640930 120.459351,579.856628 
	C137.857208,590.456299 155.907257,599.985413 174.459091,610.059753 
M810.673157,341.996735 
	C803.838074,340.664581 797.022400,339.220398 790.163208,338.027008 
	C780.243896,336.301117 770.306030,334.670654 760.350647,333.167877 
	C754.431458,332.274353 748.463562,331.703735 743.216675,331.072113 
	C764.267090,367.507111 785.439697,404.153748 807.206970,441.829590 
	C818.766052,410.460968 830.120056,379.648956 841.786743,347.988312 
	C831.107849,345.872864 821.331909,343.936249 810.673157,341.996735 
M804.449158,563.043030 
	C785.572632,599.988892 764.400391,635.617554 742.194641,671.033875 
	C775.577698,666.846497 808.301819,661.281921 841.709045,653.736267 
	C830.002686,622.011536 818.585083,591.069397 806.712036,558.893066 
	C805.633789,561.072388 805.287292,561.772766 804.449158,563.043030 
M518.995300,738.631165 
	C536.613586,762.352722 555.883118,784.666016 576.550110,807.414856 
	C598.175964,781.402283 619.137024,756.189331 640.494019,730.500122 
	C597.136780,730.500122 554.839294,730.500122 512.147827,730.500122 
	C514.400330,733.131836 516.493286,735.577209 518.995300,738.631165 
M554.449585,219.048325 
	C550.130859,224.372269 545.804504,229.690063 541.494812,235.021362 
	C531.715027,247.119461 521.943420,259.224152 512.029358,271.498352 
	C554.906128,271.498352 597.201294,271.498352 639.645569,271.498352 
	C619.463074,245.258286 598.697327,219.726059 575.913025,195.258270 
	C568.607849,203.381927 561.788635,210.965179 554.449585,219.048325 
M343.941254,564.453308 
	C332.682709,594.027527 321.424133,623.601807 309.670441,654.476562 
	C344.019135,660.431335 376.686798,666.094604 409.218506,671.734375 
	C387.748840,634.548462 366.622375,597.957031 345.510773,561.391296 
	C345.207275,561.866028 344.625641,562.775696 343.941254,564.453308 
M331.943054,407.584595 
	C336.406586,418.832031 340.870117,430.079468 345.226715,441.057434 
	C366.670258,403.938568 387.778198,367.400604 409.244965,330.241577 
	C376.458405,335.941193 343.756378,341.626099 310.971619,347.325409 
	C311.829193,350.159271 312.282867,351.871429 312.862213,353.539948 
	C319.045624,371.348755 325.248932,389.150635 331.943054,407.584595 
z"/>
<path opacity="0" stroke="none" 
	d="
M829.468628,1001.000000 
	C829.620422,1000.334900 830.130249,999.269287 830.877380,999.062988 
	C853.346497,992.860168 872.000122,981.004639 886.817200,962.813599 
	C902.957581,942.998047 912.261719,920.230408 916.902527,895.449341 
	C919.208008,883.138672 920.997437,870.652466 921.836365,858.166138 
	C922.869202,842.792664 923.584290,827.286865 922.757324,811.928772 
	C921.819336,794.508606 919.608215,777.096313 916.890564,759.847595 
	C913.240234,736.678955 908.574524,713.670288 904.217957,689.901245 
	C909.346436,688.195312 915.538757,686.211609 921.679138,684.078552 
	C940.542358,677.526001 959.668457,671.614380 978.154419,664.125610 
	C995.506531,657.096252 1012.484924,648.967102 1029.059692,640.242798 
	C1047.723511,630.418762 1065.412842,618.899292 1081.478760,605.062134 
	C1095.114868,593.317688 1107.797729,580.695801 1117.809814,565.649292 
	C1127.767090,550.685120 1134.681152,534.542358 1137.080933,516.514038 
	C1139.843994,495.757538 1137.501587,475.846405 1128.976929,456.661499 
	C1121.755615,440.410278 1111.388916,426.462097 1099.214478,413.567505 
	C1080.006836,393.223511 1057.348389,377.616180 1033.150513,364.060638 
	C1007.309204,349.584503 980.385864,337.448090 952.289673,328.001984 
	C937.187622,322.924622 922.029297,318.014404 906.899536,313.019409 
	C905.693542,312.621246 904.511719,312.149933 903.991638,311.959320 
	C908.045288,290.858429 912.344055,270.132660 915.917175,249.282547 
	C918.172668,236.120758 919.993530,222.814819 920.848083,209.499023 
	C922.108215,189.864380 923.230713,170.141312 922.747681,150.496811 
	C922.264709,130.851898 919.367798,111.303062 913.687134,92.349800 
	C908.946960,76.534187 902.784851,61.363834 893.302429,47.655434 
	C877.587036,24.936535 856.888916,9.439527 829.812805,2.892842 
	C829.257629,2.758609 828.838501,2.061775 828.677979,1.313699 
	C936.304749,1.000000 1043.609497,1.000000 1150.957153,1.000000 
	C1150.957153,334.216095 1150.957153,667.432190 1150.957153,1001.000000 
	C1043.979370,1001.000000 936.958313,1001.000000 829.468628,1001.000000 
z"/>
<path opacity="0" stroke="none" 
	d="
M322.531342,1.000000 
	C322.532166,1.661428 322.175934,2.771295 321.580414,2.919487 
	C300.031250,8.281648 282.044006,19.574480 267.476715,36.126076 
	C256.927185,48.112587 249.278107,61.907757 243.480896,76.854301 
	C237.113129,93.271904 232.809372,110.272713 231.288223,127.619400 
	C229.454681,148.528595 228.841339,169.634705 229.270111,190.623489 
	C229.603210,206.929230 231.551605,223.316528 234.210815,239.431824 
	C237.710358,260.639679 242.622025,281.614044 246.894806,302.695251 
	C247.497375,305.668213 247.920563,308.677521 248.483841,312.007324 
	C241.608810,314.247925 234.442139,316.497498 227.333527,318.917633 
	C211.172821,324.419556 194.748962,329.292084 178.973450,335.744141 
	C160.762527,343.192261 142.829590,351.472382 125.332657,360.473450 
	C105.705063,370.570618 87.294609,382.712433 70.341988,397.027771 
	C56.621994,408.613312 44.398991,421.454773 34.237305,436.258331 
	C23.542261,451.838837 16.255566,469.029144 14.273418,487.687012 
	C12.181817,507.375183 14.750350,526.730347 22.900305,545.303528 
	C33.041351,568.414368 49.281414,586.727417 67.770355,602.948059 
	C93.058769,625.133972 122.165207,641.793518 152.885498,655.156250 
	C176.024261,665.221191 199.977631,673.434082 223.674896,682.182922 
	C231.660858,685.131287 239.973999,687.193481 248.698792,689.830261 
	C247.042191,697.072021 245.224167,704.313049 243.748672,711.623291 
	C241.057953,724.954102 238.221786,738.270569 236.090485,751.695312 
	C233.690018,766.815369 231.197235,781.996216 230.208557,797.245605 
	C229.007156,815.776306 228.395065,834.449219 229.243103,852.982117 
	C230.260101,875.208252 233.724701,897.228760 240.986237,918.459106 
	C248.591110,940.693298 260.069611,960.493774 277.788788,976.210999 
	C290.344818,987.348511 305.002228,994.734314 321.224121,999.035339 
	C322.095856,999.266541 322.854279,999.924805 323.332733,1000.692139 
	C215.695206,1001.000000 108.390411,1001.000000 1.042809,1001.000000 
	C1.042809,667.783813 1.042809,334.567688 1.042809,1.000000 
	C108.020638,1.000000 215.041656,1.000000 322.531342,1.000000 
z"/>
<path opacity="0" stroke="none" 
	d="
M383.468689,1001.000000 
	C383.457031,1000.340942 383.828674,999.190613 384.383423,999.094238 
	C399.738342,996.427368 414.229065,991.040283 428.425323,984.876770 
	C449.533661,975.712341 469.606171,964.567383 488.304993,951.167175 
	C503.460480,940.306274 518.470581,929.181091 532.894958,917.378540 
	C547.759155,905.216064 561.836914,892.092590 576.336548,879.321106 
	C582.075867,884.583374 588.205811,890.080750 594.199585,895.722656 
	C611.718323,912.213074 630.377686,927.276306 649.807495,941.471375 
	C669.851807,956.115479 690.735535,969.271484 713.120728,980.011353 
	C730.749023,988.468872 748.818054,995.665649 768.192078,999.110291 
	C768.741028,999.207947 769.179138,999.928772 769.334473,1000.679504 
	C640.645752,1001.000000 512.291565,1001.000000 383.468689,1001.000000 
z"/>
<path opacity="0" stroke="none" 
	d="
M768.531372,1.000003 
	C768.707336,1.645932 768.504883,2.794756 768.108948,2.865858 
	C744.948914,7.024340 723.661011,16.259731 702.988831,27.041777 
	C683.136658,37.396126 664.042114,49.059975 646.548218,63.065147 
	C628.687866,77.363686 611.211243,92.145172 593.697632,106.871124 
	C587.639099,111.965340 581.973938,117.527397 575.314148,123.621483 
	C573.706482,121.755753 572.212341,119.518211 570.249939,117.822525 
	C551.534485,101.651077 532.997131,85.258705 513.903320,69.543709 
	C489.533234,49.486156 462.774170,33.032932 434.175140,19.697115 
	C418.216003,12.255302 401.777405,6.009635 384.308044,2.931170 
	C383.595978,2.805687 382.988892,2.084333 382.666443,1.320303 
	C511.354218,1.000000 639.708435,1.000000 768.531372,1.000003 
z"/>
<path opacity="0" stroke="none" 
	d="
M728.276367,597.300293 
	C712.012390,623.203125 695.989380,648.813049 679.908264,674.386475 
	C678.452026,676.702271 676.763916,678.103394 673.346313,678.166077 
	C657.326233,678.459900 641.322388,679.648132 625.302307,679.934937 
	C594.051392,680.494690 562.793518,680.896240 531.538574,680.888245 
	C518.523499,680.884888 505.507843,679.682129 492.494171,678.992188 
	C487.066406,678.704407 481.634369,678.424805 476.225800,677.913452 
	C475.241669,677.820435 474.068573,676.814331 473.477295,675.907349 
	C461.821381,658.026917 449.793030,640.368286 438.751862,622.113281 
	C424.443268,598.455994 410.606995,574.496582 397.200317,550.316345 
	C388.971527,535.474976 382.116364,519.877808 374.240570,504.831421 
	C371.722015,500.019836 374.373932,496.512482 376.123169,493.092468 
	C385.850677,474.073364 395.787384,455.154846 406.020905,436.402954 
	C414.765961,420.378540 423.746857,404.469452 433.104736,388.796722 
	C441.974060,373.942230 451.440277,359.443024 460.709503,344.829102 
	C462.879089,341.408569 465.848206,338.402008 467.517090,334.775848 
	C471.323334,326.505737 476.698608,323.169037 486.384064,323.666199 
	C499.494598,324.339233 512.719116,322.308075 525.906128,322.071716 
	C556.990845,321.514648 588.082458,321.084991 619.170898,321.111420 
	C633.354126,321.123505 647.537598,322.309326 661.717163,323.036041 
	C663.487122,323.126740 665.363403,324.255035 666.969971,323.901337 
	C675.489624,322.025726 679.820435,326.677734 683.813477,333.277466 
	C701.379761,362.310730 719.521118,390.998932 736.869324,420.160065 
	C746.369263,436.128662 754.808655,452.734741 763.526184,469.159576 
	C768.370972,478.287811 772.370361,487.888580 777.582947,496.789001 
	C780.825012,502.324799 777.202759,506.165466 775.355896,509.857849 
	C766.021729,528.519287 756.111023,546.895691 746.225891,565.276978 
	C740.489807,575.943054 734.420776,586.429932 728.276367,597.300293 
M666.513550,457.011719 
	C661.699585,449.533051 657.676575,441.370178 651.916016,434.710266 
	C637.447083,417.982330 619.065979,407.470245 597.331055,402.595520 
	C581.481689,399.040863 565.700195,399.309967 550.293701,403.497955 
	C528.718018,409.362885 510.475403,420.907074 496.606262,438.857971 
	C482.851318,456.660950 475.845245,476.914185 475.120667,499.220215 
	C474.760223,510.317017 476.465973,521.363770 480.064728,531.942932 
	C488.412140,556.481445 503.330200,575.843262 526.146790,588.549927 
	C547.473206,600.426758 570.242920,604.532837 594.393127,600.001282 
	C622.053711,594.810974 644.168335,580.477661 659.637817,557.323853 
	C672.526672,538.032471 678.590576,516.405762 676.190857,492.636658 
	C674.949280,480.338898 672.022278,468.784607 666.513550,457.011719 
z"/>
<path opacity="0" stroke="none" 
	d="
M452.219910,268.280090 
	C449.093353,277.121613 441.785034,277.278748 434.537323,278.063293 
	C421.404877,279.484863 408.313293,281.284485 395.206055,282.937531 
	C384.526855,284.284332 373.801270,285.349976 363.183838,287.078369 
	C349.744843,289.266083 336.383484,291.941284 323.010040,294.517456 
	C314.601685,296.137177 306.232544,297.960876 297.136993,299.839447 
	C294.457001,287.508759 291.530304,274.993622 289.054718,262.389893 
	C286.491974,249.342361 284.222717,236.232025 282.111877,223.103058 
	C281.074341,216.649948 280.284485,210.105240 280.079163,203.580063 
	C279.520935,185.839981 278.435120,168.047882 279.228760,150.351318 
	C280.211578,128.436905 284.029358,106.808372 293.748322,86.807198 
	C301.942047,69.944916 314.035492,57.073521 332.739319,51.682098 
	C346.130981,47.821922 359.522461,48.489475 372.934265,51.487171 
	C407.515228,59.216438 437.838898,75.872505 466.014771,96.661156 
	C482.139679,108.558426 497.755707,121.171387 513.242004,133.898743 
	C522.927246,141.858582 531.944824,150.630814 541.210388,158.991959 
	C508.901031,193.626266 479.992188,230.252472 452.219910,268.280090 
z"/>
<path opacity="0" stroke="none" 
	d="
M473.265167,761.770142 
	C479.197449,769.369019 484.760010,776.800049 490.571564,784.030884 
	C499.473389,795.106750 508.373383,806.192810 517.601807,816.994629 
	C525.076111,825.743286 533.033142,834.079590 541.401367,843.286743 
	C527.565674,855.399902 514.069092,868.012512 499.718079,879.563538 
	C484.421600,891.875427 468.733948,903.801086 452.464905,914.780884 
	C429.620239,930.198364 405.109558,942.531006 378.184052,949.352173 
	C362.007843,953.450073 345.801544,954.884521 329.558502,949.223145 
	C315.477875,944.315430 305.305939,934.937317 297.814789,922.378235 
	C288.998016,907.596741 284.834412,891.347473 281.808838,874.505981 
	C278.026276,853.450745 278.290314,832.267395 279.289948,811.215088 
	C280.501923,785.690430 284.155029,760.319031 289.957031,735.331665 
	C292.512421,724.326477 294.673126,713.229614 296.950134,702.471436 
	C314.397369,705.706726 331.376251,708.932495 348.386261,711.984924 
	C361.968323,714.422119 375.547089,716.936951 389.203552,718.882263 
	C401.493958,720.632996 413.887238,721.662964 426.236542,722.997803 
	C432.577515,723.683105 438.956757,724.127930 445.237579,725.170227 
	C446.663605,725.406860 447.894623,727.564575 448.975494,729.016541 
	C457.019958,739.823242 465.003998,750.675049 473.265167,761.770142 
z"/>
<path opacity="0" stroke="none" 
	d="
M664.230835,780.272766 
	C673.622681,768.158142 682.816528,756.346497 691.879272,744.435181 
	C696.294800,738.631714 700.437927,732.621582 704.781372,726.762085 
	C705.346130,726.000244 706.326538,725.158569 707.191284,725.065063 
	C720.368042,723.639343 733.591858,722.599731 746.734497,720.920776 
	C759.461426,719.294922 772.128174,717.159485 784.785095,715.032104 
	C802.061646,712.128357 819.313843,709.075562 836.555420,705.969543 
	C842.568176,704.886414 848.518250,703.455627 854.868774,702.104492 
	C858.558533,719.000488 862.578918,735.826782 865.813477,752.802734 
	C867.824524,763.357239 868.363037,774.183533 870.061157,784.808228 
	C873.365112,805.480835 873.474731,826.299561 872.890808,847.096680 
	C872.226013,870.773254 868.402588,893.967712 857.996155,915.543640 
	C849.901855,932.325623 837.803711,944.980713 819.276611,950.288513 
	C805.898499,954.121216 792.497986,953.548157 779.052734,950.564331 
	C751.716064,944.497803 726.788818,932.843201 703.806824,917.172302 
	C686.393311,905.298340 669.218384,892.992493 652.690857,879.925659 
	C638.114685,868.401611 624.581543,855.558167 610.779724,843.465515 
	C622.424255,830.183472 633.588623,817.714783 644.437317,804.977234 
	C651.197815,797.039856 657.481262,788.696106 664.230835,780.272766 
z"/>
<path opacity="0" stroke="none" 
	d="
M854.283936,79.716248 
	C862.946594,94.622948 867.198608,110.528465 870.139648,127.047554 
	C873.855164,147.916840 873.391785,168.909897 872.764709,189.843033 
	C872.341003,203.986191 870.202881,218.146759 867.914368,232.149673 
	C864.208557,254.825073 859.749023,277.377319 855.644165,299.782532 
	C838.248291,296.383301 821.943604,293.042786 805.575989,290.046265 
	C791.679199,287.502075 777.750305,285.062775 763.760376,283.118744 
	C751.133850,281.364166 738.404846,280.347473 725.721924,278.997803 
	C719.542786,278.340271 713.355103,277.743683 707.197998,276.919800 
	C706.191711,276.785187 705.093384,275.785645 704.426880,274.894623 
	C691.781555,257.991974 679.452454,240.845535 666.510742,224.174316 
	C656.904785,211.800079 646.599426,199.962952 636.455811,188.013702 
	C628.268311,178.368668 619.857056,168.913498 610.943115,158.683365 
	C622.530945,148.359406 634.012329,137.232117 646.435059,127.279900 
	C663.677856,113.466187 681.254395,99.999405 699.375549,87.370697 
	C718.785645,73.843796 739.906372,63.308979 762.473206,55.877964 
	C774.733887,51.840672 787.254456,49.003983 800.193237,49.060520 
	C823.696106,49.163204 841.870911,59.062531 854.283936,79.716248 
z"/>
<path opacity="0" stroke="none" 
	d="
M987.993958,397.003906 
	C1002.822327,405.355316 1017.559753,413.205261 1031.611816,422.133759 
	C1040.084229,427.516968 1047.601929,434.444550 1055.348755,440.917297 
	C1065.186035,449.136688 1073.246582,458.880554 1079.613892,470.051727 
	C1084.154907,478.018829 1087.093018,486.346680 1088.096069,495.564301 
	C1090.158203,514.514404 1082.558716,529.934570 1071.320679,544.148315 
	C1054.459473,565.474060 1032.664673,580.728455 1009.296265,593.933777 
	C981.950317,609.386841 953.016602,621.262390 923.296326,631.257690 
	C912.164551,635.001404 900.892517,638.327942 890.042297,641.732422 
	C882.929382,621.502136 876.142090,601.412720 868.788940,581.532593 
	C862.867920,565.524292 856.415405,549.706177 849.906006,533.924377 
	C845.785583,523.934692 841.257751,514.104919 836.620422,504.342224 
	C835.460327,501.900024 835.482971,500.260437 836.547241,497.747894 
	C847.171021,472.667328 857.973389,447.648560 867.875854,422.280792 
	C875.311523,403.232300 881.508484,383.700165 888.244629,364.379028 
	C888.714966,363.029938 889.082886,361.645111 889.502563,360.263184 
	C923.220032,369.792297 956.195435,381.292633 987.993958,397.003906 
z"/>
<path opacity="0" stroke="none" 
	d="
M174.073807,610.007751 
	C155.907257,599.985413 137.857208,590.456299 120.459351,579.856628 
	C111.898483,574.640930 104.481178,567.521606 96.660538,561.124207 
	C86.462914,552.782288 77.916985,542.817871 72.005264,531.159607 
	C68.212509,523.680176 65.544891,515.267151 64.211288,506.976929 
	C61.134304,487.849121 69.438988,472.089844 80.900139,457.557068 
	C97.444168,436.579193 118.860954,421.708221 141.762314,408.697296 
	C166.837433,394.451355 193.109756,382.882965 220.501877,373.850128 
	C234.416031,369.261810 248.302124,364.588501 261.519073,360.180969 
	C271.118164,386.396759 280.155182,412.326630 290.118469,437.895538 
	C298.197113,458.627747 307.406494,478.918793 316.031769,499.440216 
	C316.438477,500.407867 316.382538,501.856995 315.968628,502.840546 
	C305.840149,526.908325 295.122253,550.742859 285.596802,575.045166 
	C277.374207,596.023560 270.483765,617.524414 263.047272,638.809265 
	C262.737640,639.695435 262.863678,640.733765 262.782776,641.751038 
	C232.484665,633.089294 202.978745,622.948242 174.073807,610.007751 
z"/>
<path opacity="0" stroke="none" 
	d="
M811.114502,341.998169 
	C821.331909,343.936249 831.107849,345.872864 841.786743,347.988312 
	C830.120056,379.648956 818.766052,410.460968 807.206970,441.829590 
	C785.439697,404.153748 764.267090,367.507111 743.216675,331.072113 
	C748.463562,331.703735 754.431458,332.274353 760.350647,333.167877 
	C770.306030,334.670654 780.243896,336.301117 790.163208,338.027008 
	C797.022400,339.220398 803.838074,340.664581 811.114502,341.998169 
z"/>
<path opacity="0" stroke="none" 
	d="
M804.694946,562.758057 
	C805.287292,561.772766 805.633789,561.072388 806.712036,558.893066 
	C818.585083,591.069397 830.002686,622.011536 841.709045,653.736267 
	C808.301819,661.281921 775.577698,666.846497 742.194641,671.033875 
	C764.400391,635.617554 785.572632,599.988892 804.694946,562.758057 
z"/>
<path opacity="0" stroke="none" 
	d="
M518.790771,738.326843 
	C516.493286,735.577209 514.400330,733.131836 512.147827,730.500122 
	C554.839294,730.500122 597.136780,730.500122 640.494019,730.500122 
	C619.137024,756.189331 598.175964,781.402283 576.550110,807.414856 
	C555.883118,784.666016 536.613586,762.352722 518.790771,738.326843 
z"/>
<path opacity="0" stroke="none" 
	d="
M554.709473,218.798370 
	C561.788635,210.965179 568.607849,203.381927 575.913025,195.258270 
	C598.697327,219.726059 619.463074,245.258286 639.645569,271.498352 
	C597.201294,271.498352 554.906128,271.498352 512.029358,271.498352 
	C521.943420,259.224152 531.715027,247.119461 541.494812,235.021362 
	C545.804504,229.690063 550.130859,224.372269 554.709473,218.798370 
z"/>
<path opacity="0" stroke="none" 
	d="
M343.992615,564.069336 
	C344.625641,562.775696 345.207275,561.866028 345.510773,561.391296 
	C366.622375,597.957031 387.748840,634.548462 409.218506,671.734375 
	C376.686798,666.094604 344.019135,660.431335 309.670441,654.476562 
	C321.424133,623.601807 332.682709,594.027527 343.992615,564.069336 
z"/>
<path opacity="0" stroke="none" 
	d="
M331.694946,407.269531 
	C325.248932,389.150635 319.045624,371.348755 312.862213,353.539948 
	C312.282867,351.871429 311.829193,350.159271 310.971619,347.325409 
	C343.756378,341.626099 376.458405,335.941193 409.244965,330.241577 
	C387.778198,367.400604 366.670258,403.938568 345.226715,441.057434 
	C340.870117,430.079468 336.406586,418.832031 331.694946,407.269531 
z"/>
<path fill="#4568dc" opacity="1.000000" stroke="none" 
	d="
M666.732788,457.328522 
	C672.022278,468.784607 674.949280,480.338898 676.190857,492.636658 
	C678.590576,516.405762 672.526672,538.032471 659.637817,557.323853 
	C644.168335,580.477661 622.053711,594.810974 594.393127,600.001282 
	C570.242920,604.532837 547.473206,600.426758 526.146790,588.549927 
	C503.330200,575.843262 488.412140,556.481445 480.064728,531.942932 
	C476.465973,521.363770 474.760223,510.317017 475.120667,499.220215 
	C475.845245,476.914185 482.851318,456.660950 496.606262,438.857971 
	C510.475403,420.907074 528.718018,409.362885 550.293701,403.497955 
	C565.700195,399.309967 581.481689,399.040863 597.331055,402.595520 
	C619.065979,407.470245 637.447083,417.982330 651.916016,434.710266 
	C657.676575,441.370178 661.699585,449.533051 666.732788,457.328522 
z"/>
</svg>