<svg version="1.1" id="Layer_1" xmlns="http://www.w3.org/2000/svg" xmlns:xlink="http://www.w3.org/1999/xlink" x="0px" y="0px"
	 width="100%" viewBox="0 0 256 256" enable-background="new 0 0 256 256" xml:space="preserve">
<path fill="#4568dc" opacity="1.000000" stroke="none" 
	d="
M257.000000,8.999999 
	C257.000000,90.354225 257.000000,171.708450 256.737976,253.601196 
	C255.987595,254.370972 255.499268,254.602249 254.545898,254.901123 
	C172.046600,254.978912 90.012329,254.989700 7.978070,254.992416 
	C6.983067,254.992447 5.988060,254.888702 4.865326,254.687378 
	C4.560060,254.352631 4.370040,254.177460 4.099917,253.550507 
	C4.032296,169.852890 4.032296,86.620621 4.032296,3.290178 
	C88.340065,3.290178 172.057434,3.290178 255.355728,3.290178 
	C255.973175,5.434260 256.486603,7.217129 257.000000,8.999999 
M116.232307,140.949280 
	C125.106148,140.966293 133.981689,141.073273 142.852081,140.906555 
	C144.235748,140.880539 145.595993,139.607254 146.993958,137.985489 
	C146.993958,131.846207 146.993958,125.706917 146.993958,120.026047 
	C118.466095,120.026047 90.305305,120.026047 62.144520,120.026047 
	C62.144249,120.389290 62.143978,120.752533 62.143707,121.115776 
	C89.997314,121.115776 117.850914,121.115776 145.752350,121.115776 
	C145.752350,126.966805 145.752350,132.225632 145.752350,137.663452 
	C135.788132,137.663452 126.073090,137.663452 116.358055,137.663452 
	C116.356361,137.401306 116.354675,137.139145 116.352982,136.876999 
	C125.763519,136.876999 135.174057,136.876999 144.642868,136.876999 
	C144.642868,131.708511 144.642868,126.998344 144.642868,122.398254 
	C117.255547,122.398254 90.228584,122.398254 63.290489,122.398254 
	C63.290489,127.397903 63.290489,131.993027 63.290489,137.015045 
	C72.991768,137.015045 82.407654,137.015045 91.823540,137.015045 
	C83.425842,137.999741 75.024391,137.938599 66.624931,138.041153 
	C64.423637,138.068024 62.228539,138.602814 60.436821,139.556030 
	C61.445320,140.017761 62.448719,140.866806 63.463127,140.880157 
	C71.858047,140.990692 80.256104,141.012085 88.650032,140.871033 
	C89.771851,140.852158 90.875885,139.774277 92.777405,139.513290 
	C92.777405,169.859146 92.777405,200.205017 92.777405,230.984161 
	C99.992905,230.984161 106.434776,231.030899 112.874062,230.923218 
	C113.652435,230.910187 114.416862,230.063019 115.528717,229.908646 
	C115.415131,229.212555 115.301544,228.516479 115.036751,226.917252 
	C115.086868,198.247818 115.136978,169.578369 116.232307,140.949280 
M221.926300,137.558960 
	C225.078964,135.857880 224.343140,134.257568 222.407791,131.761597 
	C216.755386,124.471855 208.447067,122.928955 200.344437,121.220367 
	C188.571091,118.737747 170.790649,126.882103 166.550858,137.508118 
	C162.626511,147.343552 164.590652,157.492722 169.391251,166.802780 
	C171.775177,171.426056 175.772263,173.975983 181.165222,175.372070 
	C185.824173,176.578140 189.701996,181.361069 194.309937,182.073380 
	C201.174469,183.134552 204.331894,188.560211 209.280594,191.769028 
	C211.368820,193.123077 213.776077,194.840408 214.701752,196.972794 
	C217.553177,203.541519 209.629105,215.347290 202.346542,215.689224 
	C198.296448,215.879379 194.204758,215.765884 190.165909,215.406418 
	C187.534683,215.172241 184.359528,214.991653 182.499100,213.474060 
	C179.106354,210.706512 176.509109,206.963776 173.108551,203.090942 
	C168.065796,205.373734 162.866730,207.727295 156.974014,210.394852 
	C159.974731,213.943680 161.840118,216.870926 164.374634,219.002579 
	C170.310196,223.994629 177.769318,225.961975 184.927399,228.463669 
	C198.403046,233.173294 210.652069,228.327240 222.351395,222.689926 
	C225.533554,221.156616 226.684448,215.614899 229.030853,212.087982 
	C232.018158,207.597717 232.607941,202.618790 231.735641,197.620041 
	C231.079865,193.862030 228.491516,190.361893 228.203003,186.635498 
	C227.583664,178.636124 221.369583,175.468155 215.851120,173.348648 
	C205.590195,169.407684 195.392166,165.553207 187.042145,158.337830 
	C180.725784,152.879776 179.638000,151.759018 182.220261,141.552521 
	C183.073151,138.181412 188.732971,135.074112 194.088318,135.022797 
	C199.622742,134.969757 205.234314,134.670807 208.937225,140.234451 
	C209.471909,141.037827 211.576843,141.382294 212.725281,141.076355 
	C215.660461,140.294418 218.465881,139.025467 221.926300,137.558960 
z"/>
<path opacity="0" stroke="none" 
	d="
M257.000000,8.562499 
	C256.486603,7.217129 255.973175,5.434260 255.355728,3.290178 
	C172.057434,3.290178 88.340065,3.290178 4.032296,3.290178 
	C4.032296,86.620621 4.032296,169.852890 4.082377,253.801788 
	C4.419325,254.623413 4.706190,254.728409 4.993055,254.833405 
	C5.988060,254.888702 6.983067,254.992447 7.978070,254.992416 
	C90.012329,254.989700 172.046600,254.978912 255.044891,254.842468 
	C256.330475,254.809677 256.652069,254.903152 256.679016,255.393814 
	C254.224075,255.861328 252.063766,255.992828 249.903427,255.993118 
	C169.448517,256.003601 88.993584,255.995285 8.538699,256.043640 
	C6.692275,256.044739 4.846224,256.667297 3.000000,257.000000 
	C2.333336,256.666656 1.666669,256.333313 1.146830,255.078644 
	C1.862228,252.639175 2.923723,251.122238 2.927327,249.602783 
	C3.018919,211.000778 2.999763,172.398514 2.999775,133.796295 
	C2.999788,92.032692 3.024960,50.269020 2.914776,8.505708 
	C2.909930,6.668801 1.666492,4.835162 1.000000,3.000000 
	C1.333333,2.333333 1.666667,1.666667 2.717534,1.376258 
	C5.423803,1.834582 7.412526,1.988123 9.401274,1.988423 
	C91.934181,2.000866 174.467087,1.999572 257.000000,2.000000 
	C257.000000,4.041667 257.000000,6.083333 257.000000,8.562499 
z"/>
<path fill="#4568dc" opacity="1.000000" stroke="none" 
	d="
M1.000000,3.468657 
	C1.666492,4.835162 2.909930,6.668801 2.914776,8.505708 
	C3.024960,50.269020 2.999788,92.032692 2.999775,133.796295 
	C2.999763,172.398514 3.018919,211.000778 2.927327,249.602783 
	C2.923723,251.122238 1.862228,252.639175 1.146829,254.578644 
	C1.000000,171.312439 1.000000,87.624878 1.000000,3.468657 
z"/>
<path fill="#4568dc" opacity="1.000000" stroke="none" 
	d="
M3.468657,257.000000 
	C4.846224,256.667297 6.692275,256.044739 8.538699,256.043640 
	C88.993584,255.995285 169.448517,256.003601 249.903427,255.993118 
	C252.063766,255.992828 254.224075,255.861328 256.683777,255.394684 
	C256.983154,254.998367 257.000000,255.000000 257.000000,255.000000 
	C256.668396,255.666672 256.455627,256.783844 255.981125,256.909027 
	C254.892242,257.196289 253.675797,257.000000 252.511124,257.000000 
	C169.653183,257.000000 86.795250,257.000000 3.468657,257.000000 
z"/>
<path fill="#007ACC" opacity="1.000000" stroke="none" 
	d="
M257.000000,1.500000 
	C174.467087,1.999572 91.934181,2.000866 9.401274,1.988423 
	C7.412526,1.988123 5.423803,1.834582 3.217534,1.376258 
	C87.666664,1.000000 172.333328,1.000000 257.000000,1.500000 
z"/>
<path fill="#0082C8" opacity="1.000000" stroke="none" 
	d="
M257.000000,254.750000 
	C257.000000,255.000000 256.983154,254.998367 256.978394,254.997498 
	C256.652069,254.903152 256.330475,254.809677 255.509918,254.774857 
	C255.499268,254.602249 255.987595,254.370972 256.737976,254.069855 
	C257.000000,254.000000 257.000000,254.500000 257.000000,254.750000 
z"/>
<path opacity="0" stroke="none" 
	d="
M221.624756,137.755127 
	C218.465881,139.025467 215.660461,140.294418 212.725281,141.076355 
	C211.576843,141.382294 209.471909,141.037827 208.937225,140.234451 
	C205.234314,134.670807 199.622742,134.969757 194.088318,135.022797 
	C188.732971,135.074112 183.073151,138.181412 182.220261,141.552521 
	C179.638000,151.759018 180.725784,152.879776 187.042145,158.337830 
	C195.392166,165.553207 205.590195,169.407684 215.851120,173.348648 
	C221.369583,175.468155 227.583664,178.636124 228.203003,186.635498 
	C228.491516,190.361893 231.079865,193.862030 231.735641,197.620041 
	C232.607941,202.618790 232.018158,207.597717 229.030853,212.087982 
	C226.684448,215.614899 225.533554,221.156616 222.351395,222.689926 
	C210.652069,228.327240 198.403046,233.173294 184.927399,228.463669 
	C177.769318,225.961975 170.310196,223.994629 164.374634,219.002579 
	C161.840118,216.870926 159.974731,213.943680 156.974014,210.394852 
	C162.866730,207.727295 168.065796,205.373734 173.108551,203.090942 
	C176.509109,206.963776 179.106354,210.706512 182.499100,213.474060 
	C184.359528,214.991653 187.534683,215.172241 190.165909,215.406418 
	C194.204758,215.765884 198.296448,215.879379 202.346542,215.689224 
	C209.629105,215.347290 217.553177,203.541519 214.701752,196.972794 
	C213.776077,194.840408 211.368820,193.123077 209.280594,191.769028 
	C204.331894,188.560211 201.174469,183.134552 194.309937,182.073380 
	C189.701996,181.361069 185.824173,176.578140 181.165222,175.372070 
	C175.772263,173.975983 171.775177,171.426056 169.391251,166.802780 
	C164.590652,157.492722 162.626511,147.343552 166.550858,137.508118 
	C170.790649,126.882103 188.571091,118.737747 200.344437,121.220367 
	C208.447067,122.928955 216.755386,124.471855 222.407791,131.761597 
	C224.343140,134.257568 225.078964,135.857880 221.624756,137.755127 
z"/>
<path opacity="0" stroke="none" 
	d="
M115.187759,229.602448 
	C114.416862,230.063019 113.652435,230.910187 112.874062,230.923218 
	C106.434776,231.030899 99.992905,230.984161 92.777405,230.984161 
	C92.777405,200.205017 92.777405,169.859146 91.918762,139.285736 
	C80.716942,139.006897 70.373764,138.955612 60.030590,138.904343 
	C62.228539,138.602814 64.423637,138.068024 66.624931,138.041153 
	C75.024391,137.938599 83.425842,137.999741 91.823540,137.015045 
	C82.407654,137.015045 72.991768,137.015045 63.290489,137.015045 
	C63.290489,131.993027 63.290489,127.397903 63.290489,122.398254 
	C90.228584,122.398254 117.255547,122.398254 144.642868,122.398254 
	C144.642868,126.998344 144.642868,131.708511 144.642868,136.876999 
	C135.174057,136.876999 125.763519,136.876999 116.352982,136.876999 
	C116.354675,137.139145 116.356361,137.401306 116.358055,137.663452 
	C126.073090,137.663452 135.788132,137.663452 145.752350,137.663452 
	C145.752350,132.225632 145.752350,126.966805 145.752350,121.115776 
	C117.850914,121.115776 89.997314,121.115776 62.143707,121.115776 
	C62.143978,120.752533 62.144249,120.389290 62.144520,120.026047 
	C90.305305,120.026047 118.466095,120.026047 146.993958,120.026047 
	C146.993958,125.706917 146.993958,131.846207 146.525330,138.496399 
	C136.182602,139.067932 126.308510,139.128555 116.197205,139.122864 
	C115.703049,139.511719 115.446098,139.966919 115.137329,140.543610 
	C115.085518,140.665085 115.187088,140.908936 115.187088,140.908936 
	C115.136978,169.578369 115.086868,198.247818 115.048477,227.587189 
	C115.102715,228.705582 115.145241,229.154022 115.187759,229.602448 
M94.001274,145.767059 
	C94.001274,173.699829 94.001274,201.632614 94.001274,229.638550 
	C100.958916,229.638550 107.338631,229.638550 113.333977,229.638550 
	C113.333977,199.270538 113.333977,169.267181 113.333977,139.263809 
	C112.874809,139.265488 112.415649,139.267151 111.956482,139.268829 
	C111.956482,169.098618 111.956482,198.928421 111.956482,228.725372 
	C105.977654,228.725372 100.714943,228.725372 94.870430,228.725372 
	C94.870430,199.110428 94.870430,169.764221 94.870430,140.418015 
	C94.580711,140.420441 94.291000,140.422852 94.001282,140.425278 
	C94.001282,141.903564 94.001282,143.381836 94.001274,145.767059 
z"/>
<path fill="#4568dc" opacity="1.000000" stroke="none" 
	d="
M60.233704,139.230179 
	C70.373764,138.955612 80.716942,139.006897 91.524139,139.122498 
	C90.875885,139.774277 89.771851,140.852158 88.650032,140.871033 
	C80.256104,141.012085 71.858047,140.990692 63.463127,140.880157 
	C62.448719,140.866806 61.445320,140.017761 60.233704,139.230179 
z"/>
<path fill="#4568dc" opacity="1.000000" stroke="none" 
	d="
M115.709702,140.929108 
	C115.187088,140.908936 115.085518,140.665085 115.455750,140.242538 
	C116.028786,139.609726 116.231606,139.399460 116.434418,139.189194 
	C126.308510,139.128555 136.182602,139.067932 146.511887,138.959000 
	C145.595993,139.607254 144.235748,140.880539 142.852081,140.906555 
	C133.981689,141.073273 125.106148,140.966293 115.709702,140.929108 
z"/>
<path fill="#4568dc" opacity="1.000000" stroke="none" 
	d="
M115.358246,229.755554 
	C115.145241,229.154022 115.102715,228.705582 115.124069,228.038757 
	C115.301544,228.516479 115.415131,229.212555 115.358246,229.755554 
z"/>
<path fill="#4568dc" opacity="1.000000" stroke="none" 
	d="
M4.865326,254.687378 
	C4.706190,254.728409 4.419325,254.623413 4.149999,254.267136 
	C4.370040,254.177460 4.560060,254.352631 4.865326,254.687378 
z"/>
<path fill="#4568dc" opacity="1.000000" stroke="none" 
	d="
M94.001282,145.313599 
	C94.001282,143.381836 94.001282,141.903564 94.001282,140.425278 
	C94.291000,140.422852 94.580711,140.420441 94.870430,140.418015 
	C94.870430,169.764221 94.870430,199.110428 94.870430,228.725372 
	C100.714943,228.725372 105.977654,228.725372 111.956482,228.725372 
	C111.956482,198.928421 111.956482,169.098618 111.956482,139.268829 
	C112.415649,139.267151 112.874809,139.265488 113.333977,139.263809 
	C113.333977,169.267181 113.333977,199.270538 113.333977,229.638550 
	C107.338631,229.638550 100.958916,229.638550 94.001274,229.638550 
	C94.001274,201.632614 94.001274,173.699829 94.001282,145.313599 
z"/>
<path fill="#4568dc" opacity="1.000000" stroke="none" 
	d="
M115.507561,140.121063 
	C115.446098,139.966919 115.703049,139.511719 116.197205,139.122864 
	C116.231606,139.399460 116.028786,139.609726 115.507561,140.121063 
z"/>
</svg>