<svg version="1.1" id="Layer_1" xmlns="http://www.w3.org/2000/svg" xmlns:xlink="http://www.w3.org/1999/xlink" x="0px" y="0px"
	 width="100%" viewBox="0 0 600 600" enable-background="new 0 0 600 600" xml:space="preserve">
<path opacity="0" stroke="none" 
	d="
M335.000000,601.000000 
	C223.333328,601.000000 112.166664,601.000000 1.000000,601.000000 
	C1.000000,401.000000 1.000000,201.000000 1.000000,1.000000 
	C201.000000,1.000000 401.000000,1.000000 601.000000,1.000000 
	C601.000000,201.000000 601.000000,401.000000 601.000000,601.000000 
	C512.500000,601.000000 424.000000,601.000000 335.000000,601.000000 
M10.999372,184.500000 
	C10.999372,320.244568 10.999372,455.989166 10.999372,591.701294 
	C204.976532,591.701294 398.354797,591.701294 591.701294,591.701294 
	C591.701294,398.023529 591.701294,204.645264 591.701294,11.298597 
	C398.023682,11.298597 204.645386,11.298597 10.999372,11.298597 
	C10.999372,68.898270 10.999372,126.199135 10.999372,184.500000 
z"/>
<path fill="#4568dc" opacity="1.000000" stroke="none" 
	d="
M10.999372,184.000000 
	C10.999372,126.199135 10.999372,68.898270 10.999372,11.298597 
	C204.645386,11.298597 398.023682,11.298597 591.701294,11.298597 
	C591.701294,204.645264 591.701294,398.023529 591.701294,591.701294 
	C398.354797,591.701294 204.976532,591.701294 10.999372,591.701294 
	C10.999372,455.989166 10.999372,320.244568 10.999372,184.000000 
M497.839325,339.332367 
	C508.693665,332.366211 519.547974,325.400024 530.563599,318.330353 
	C522.200317,303.599915 511.889709,291.588470 497.153137,284.118195 
	C475.553650,273.168915 452.598236,271.946533 429.518585,277.267120 
	C402.409149,283.516815 382.689606,299.429138 375.723877,327.093079 
	C368.573090,355.491882 373.705536,381.696167 395.528290,402.932007 
	C409.030029,416.070709 426.009399,423.442993 442.899414,431.007843 
	C455.161377,436.499847 467.395813,442.173248 479.124939,448.696442 
	C488.249969,453.771393 492.662598,462.420959 491.564117,473.048279 
	C490.378815,484.515900 483.032104,491.536896 472.664093,494.625732 
	C451.227295,501.012146 431.385529,497.828400 414.848083,481.823975 
	C409.652496,476.795807 405.461456,470.729645 400.521179,464.790680 
	C386.044250,473.193451 371.336517,481.730194 356.536682,490.320374 
	C365.186188,507.164124 377.008667,520.228210 392.588745,529.716003 
	C416.449402,544.246521 442.648224,547.876343 469.961334,545.447754 
	C486.250153,543.999390 501.642792,539.486755 515.456299,530.427551 
	C545.885010,510.471863 552.045288,474.319427 542.378723,442.543396 
	C536.348633,422.721130 522.260254,409.265503 504.690033,399.815704 
	C487.892578,390.781525 470.152100,383.517609 453.051056,375.022736 
	C446.267670,371.653137 439.456177,367.790100 433.795197,362.848358 
	C426.505768,356.485016 425.400330,347.525787 428.108551,338.464142 
	C430.738617,329.664032 437.297638,324.710388 446.083618,323.058105 
	C461.514496,320.156219 473.908936,325.233307 483.015472,338.098663 
	C484.709137,340.491394 486.319611,342.942993 488.104187,345.566956 
	C491.387878,343.484039 494.320770,341.623627 497.839325,339.332367 
M316.157806,511.591888 
	C324.333984,497.315308 327.147766,481.740753 327.155823,465.530762 
	C327.186005,404.873352 327.167908,344.215973 327.167908,283.558563 
	C327.167908,281.781067 327.167908,280.003540 327.167908,278.115540 
	C308.728577,278.115540 290.829407,278.115540 272.501007,278.115540 
	C272.501007,280.367706 272.501038,282.340027 272.501038,284.312347 
	C272.501038,343.469971 272.510956,402.627594 272.476990,461.785217 
	C272.474915,465.441315 272.374603,469.130249 271.891266,472.746613 
	C270.732086,481.419678 268.087921,489.383606 259.715424,493.920013 
	C248.090042,500.218964 230.844604,497.948334 221.834305,488.227753 
	C216.683136,482.670593 212.635849,476.090179 207.762161,469.526855 
	C193.457443,478.182556 178.724655,487.097290 163.846786,496.099823 
	C171.769379,512.910828 182.982727,526.221619 199.011871,534.936768 
	C222.251083,547.572144 246.989578,548.712952 272.263367,543.064819 
	C290.959900,538.886536 305.789062,528.846741 316.157806,511.591888 
z"/>
<path opacity="0" stroke="none" 
	d="
M497.546509,339.547791 
	C494.320770,341.623627 491.387878,343.484039 488.104187,345.566956 
	C486.319611,342.942993 484.709137,340.491394 483.015472,338.098663 
	C473.908936,325.233307 461.514496,320.156219 446.083618,323.058105 
	C437.297638,324.710388 430.738617,329.664032 428.108551,338.464142 
	C425.400330,347.525787 426.505768,356.485016 433.795197,362.848358 
	C439.456177,367.790100 446.267670,371.653137 453.051056,375.022736 
	C470.152100,383.517609 487.892578,390.781525 504.690033,399.815704 
	C522.260254,409.265503 536.348633,422.721130 542.378723,442.543396 
	C552.045288,474.319427 545.885010,510.471863 515.456299,530.427551 
	C501.642792,539.486755 486.250153,543.999390 469.961334,545.447754 
	C442.648224,547.876343 416.449402,544.246521 392.588745,529.716003 
	C377.008667,520.228210 365.186188,507.164124 356.536682,490.320374 
	C371.336517,481.730194 386.044250,473.193451 400.521179,464.790680 
	C405.461456,470.729645 409.652496,476.795807 414.848083,481.823975 
	C431.385529,497.828400 451.227295,501.012146 472.664093,494.625732 
	C483.032104,491.536896 490.378815,484.515900 491.564117,473.048279 
	C492.662598,462.420959 488.249969,453.771393 479.124939,448.696442 
	C467.395813,442.173248 455.161377,436.499847 442.899414,431.007843 
	C426.009399,423.442993 409.030029,416.070709 395.528290,402.932007 
	C373.705536,381.696167 368.573090,355.491882 375.723877,327.093079 
	C382.689606,299.429138 402.409149,283.516815 429.518585,277.267120 
	C452.598236,271.946533 475.553650,273.168915 497.153137,284.118195 
	C511.889709,291.588470 522.200317,303.599915 530.563599,318.330353 
	C519.547974,325.400024 508.693665,332.366211 497.546509,339.547791 
z"/>
<path opacity="0" stroke="none" 
	d="
M316.005249,511.925537 
	C305.789062,528.846741 290.959900,538.886536 272.263367,543.064819 
	C246.989578,548.712952 222.251083,547.572144 199.011871,534.936768 
	C182.982727,526.221619 171.769379,512.910828 163.846786,496.099823 
	C178.724655,487.097290 193.457443,478.182556 207.762161,469.526855 
	C212.635849,476.090179 216.683136,482.670593 221.834305,488.227753 
	C230.844604,497.948334 248.090042,500.218964 259.715424,493.920013 
	C268.087921,489.383606 270.732086,481.419678 271.891266,472.746613 
	C272.374603,469.130249 272.474915,465.441315 272.476990,461.785217 
	C272.510956,402.627594 272.501038,343.469971 272.501038,284.312347 
	C272.501038,282.340027 272.501007,280.367706 272.501007,278.115540 
	C290.829407,278.115540 308.728577,278.115540 327.167908,278.115540 
	C327.167908,280.003540 327.167908,281.781067 327.167908,283.558563 
	C327.167908,344.215973 327.186005,404.873352 327.155823,465.530762 
	C327.147766,481.740753 324.333984,497.315308 316.005249,511.925537 
z"/>
</svg>